<svg width="37" height="52" viewBox="0 0 37 52" fill="none" xmlns="http://www.w3.org/2000/svg">
<path fill-rule="evenodd" clip-rule="evenodd" d="M20.5839 25C20.7088 25.0065 20.83 25.046 20.9363 25.1146C21.0426 25.1832 21.1306 25.2788 21.192 25.3924C21.2583 25.4848 21.3688 25.5656 21.4352 25.6695C21.6586 26.0076 21.8511 26.3671 22.0101 26.7429C22.4965 27.8972 22.8392 29.1899 23.2372 30.4596C23.3477 30.8405 23.3809 31.2099 23.4915 31.6139C23.602 32.0178 23.6905 32.6411 23.8342 33.1721C23.9385 33.5078 23.9944 33.858 24 34.2109C23.9342 34.11 23.8891 33.9961 23.8673 33.8762C23.7568 33.6222 23.6573 33.3568 23.5467 33.0797C23.4362 32.8027 23.204 32.191 23.0161 31.7639C22.9387 31.5561 22.7729 31.3715 22.6955 31.1752C22.6181 30.979 22.6291 30.7712 22.5518 30.5866C22.3196 29.9864 21.7889 29.086 21.192 28.9129C20.794 28.7975 20.2854 29.3861 20.0864 29.617C19.8874 29.8478 19.6663 30.0787 19.4894 30.3211C19.0472 30.9559 18.6603 31.6139 18.2623 32.2949C17.0752 34.4819 16.1365 36.8061 15.4653 39.2204C14.9126 40.9517 14.5256 42.7524 13.8844 44.3914C13.5417 45.2455 13.3648 46.1689 13 47V46.8961C13.0884 46.7691 13.0663 46.5614 13.1216 46.3882C13.2322 45.9843 13.2764 45.5456 13.398 45.107C13.6854 44.0682 13.8513 42.937 14.1276 41.8867C14.2161 41.5981 14.2161 41.3211 14.3045 41.0325C14.7246 39.4858 14.9568 37.8468 15.41 36.3116C15.5538 35.7692 15.598 35.2151 15.7638 34.6842C15.9296 34.1532 16.007 33.7492 16.1618 33.2875C16.4935 32.2487 16.8693 31.1983 17.2673 30.2288C17.5216 29.6055 17.7538 29.0052 18.0412 28.4397C18.1075 28.3012 18.1518 28.1511 18.2291 28.0126C18.6218 27.3122 19.0499 26.634 19.5116 25.9811C19.7813 25.6641 20.0987 25.3951 20.4513 25.1847C20.4291 25.0577 20.5176 25.0462 20.5839 25Z" fill="#318470"/>
<path fill-rule="evenodd" clip-rule="evenodd" d="M6.25417 0.000632756C7.69912 -0.0163438 9.12728 0.308507 10.4199 0.948177C10.8489 1.12997 11.266 1.33838 11.6685 1.57217C11.9602 1.75706 12.2636 1.8495 12.5553 2.02283C13.3371 2.4966 14.1656 2.90104 14.8891 3.36326C15.1341 3.51348 15.3908 3.59437 15.6359 3.73303C16.4188 4.1897 17.253 4.55424 18.1213 4.81924C18.5297 4.95791 18.9731 5.01568 19.4049 5.11968C19.6149 5.11968 19.825 5.11968 20 5.18901C19.3349 5.85923 17.2928 5.6859 16.3243 5.40857C15.8459 5.2699 15.3325 5.20057 14.8307 5.05035C13.9672 4.79613 13.0454 4.63435 12.1586 4.40325C11.9019 4.34547 11.6802 4.40325 11.4234 4.3108C10.7415 4.17781 10.04 4.17781 9.35806 4.3108C8.61653 4.51709 7.96441 4.9598 7.50273 5.57034C7.02755 6.27442 6.68371 7.05716 6.48754 7.88143L6.33585 8.86364V9.09474C6.24833 9.68088 6.24833 10.2766 6.33585 10.8627V11.0823L6.49921 12.1685C6.65091 12.7463 6.73259 13.324 6.91929 13.9134C7.60775 15.9818 8.23786 18.0271 8.92632 20.1071C9.13636 20.7657 9.20637 21.459 9.3814 22.1524V22.7417C9.51082 23.5049 9.55776 24.2797 9.52143 25.0528C9.57463 25.5483 9.57463 26.0479 9.52143 26.5434V26.8554L9.36973 28.5541C9.24138 29.0625 9.27638 29.6172 9.14803 30.1372C8.84464 31.3851 8.78629 32.7256 8.47124 33.9504C8.37789 34.3087 8.40122 34.6438 8.31954 35.002C8.0745 35.9611 8.05116 37.0242 7.81778 38.0064C7.7361 38.3299 7.74777 38.6766 7.67776 38.9886L7.56107 40.4446C7.56107 40.5601 7.56107 40.7335 7.56107 40.8375V41.6001C7.53187 41.8226 7.53187 42.0479 7.56107 42.2703C7.53119 42.6318 7.53119 42.9951 7.56107 43.3565V43.6454L7.67776 44.801C7.74777 45.0667 7.74777 45.3787 7.81778 45.6676C7.99554 46.5177 8.22942 47.3554 8.51791 48.1752C8.84452 48.9749 9.23471 49.7477 9.68479 50.4862C9.89741 50.8603 10.0883 51.2461 10.2566 51.6418C10.3457 51.756 10.4275 51.8757 10.5016 52H10.3382C10.1982 51.8151 9.87149 51.7227 9.67312 51.584C9.31005 51.3379 8.97375 51.0553 8.66961 50.7405L8.41289 50.5093C8.14451 50.1511 7.84112 49.8276 7.58441 49.4694C7.32769 49.1111 7.02431 48.5796 6.74426 48.1289C6.2182 47.1282 5.82594 46.0638 5.57738 44.9627V44.6508C5.42768 43.8187 5.34187 42.9766 5.32066 42.1317C5.26225 41.7254 5.26225 41.313 5.32066 40.9068V40.4446C5.32066 40.1904 5.32066 39.8437 5.39068 39.5779V39.3237C5.49569 38.873 5.39068 38.3415 5.5307 37.8908V37.2437C5.68239 36.5735 5.61238 35.8224 5.76408 35.1638L5.83409 34.6669C6.00912 33.9273 5.92744 33.0838 6.10247 32.3558V31.6047C6.10247 31.3274 6.10247 30.9691 6.18415 30.6803V30.2643C6.18415 30.1025 6.18415 29.8598 6.18415 29.6749C6.23086 29.384 6.23086 29.0876 6.18415 28.7967V28.2652L6.07913 27.1096L5.91577 26.035C5.7174 25.2377 5.60071 24.4403 5.344 23.7239C4.73722 21.9213 3.97875 20.2573 3.24362 18.5355C2.33345 16.1782 1.44662 14.0173 0.653147 11.556C0.548127 11.2209 0.513121 10.9089 0.419771 10.5507C-0.210344 8.38986 -0.187006 5.23524 0.874854 3.52503C1.67852 2.15234 2.90545 1.07098 4.37549 0.439738C4.78657 0.29123 5.20768 0.171529 5.63572 0.0815207L6.25417 0.000632756Z" fill="#318470"/>
<path fill-rule="evenodd" clip-rule="evenodd" d="M33.2839 18H33.1714C33.2389 17.8702 33.1714 17.6578 33.1714 17.4808L33.2727 16.7373L33.959 13.846C34.139 13.2324 34.2627 12.5597 34.4203 11.9106C34.499 11.6274 34.4203 11.356 34.5215 11.0492C34.5988 10.4729 34.5605 9.88604 34.409 9.32621C34.2499 8.75599 33.9624 8.23426 33.5708 7.80501C33.1792 7.37576 32.6949 7.05157 32.1588 6.85978C31.8193 6.74455 31.4737 6.64999 31.1238 6.57655C30.7252 6.48085 30.3175 6.43334 29.9087 6.43494H29.3799L28.3448 6.57655C27.7935 6.71817 27.2197 6.83618 26.7584 7.01319C25.1721 7.56784 23.687 8.28771 22.1794 8.94857C21.5943 9.19639 21.0543 9.37341 20.4017 9.58583C18.9471 10.1788 17.3484 10.2616 15.8451 9.82185C15.387 9.64946 14.952 9.41541 14.5513 9.12559C14.3263 8.94857 14.2025 8.64174 14 8.44112C14.0294 8.43258 14.0606 8.43258 14.09 8.44112C14.3967 8.55826 14.713 8.64518 15.0351 8.70075C15.2938 8.79516 15.5976 8.88956 15.8789 8.96037L16.4864 9.06658C16.8408 9.12149 17.2009 9.12149 17.5553 9.06658C17.7915 9.06658 17.994 9.06658 18.2078 8.94857C18.7806 8.76271 19.3439 8.54607 19.8954 8.29951C22.7756 6.97779 25.0596 5.11322 27.9735 3.8269C28.6267 3.55479 29.2956 3.32619 29.9762 3.14244C30.2349 3.07163 30.46 3.14244 30.73 3.03623C31.0848 2.98792 31.444 2.98792 31.7988 3.03623C32.2151 3.14244 32.6539 3.03623 33.0477 3.20144C34.0045 3.36392 34.924 3.7121 35.7591 4.22814C36.8842 5.10142 37.3117 7.35542 36.7604 9.2436C36.4149 10.3736 36.0054 11.4809 35.5341 12.5597C35.3541 12.9845 35.1066 13.4094 34.9265 13.846C34.6115 14.5895 34.364 15.333 34.0602 16.0882C33.9027 16.5013 33.734 16.9379 33.5652 17.3509C33.4466 17.5545 33.3521 17.7724 33.2839 18Z" fill="#318470"/>
</svg>
