<svg width="138" height="64" viewBox="0 0 138 64" fill="none" xmlns="http://www.w3.org/2000/svg">
<path fill-rule="evenodd" clip-rule="evenodd" d="M20.5839 25C20.7088 25.0065 20.83 25.046 20.9363 25.1146C21.0426 25.1832 21.1306 25.2788 21.192 25.3924C21.2583 25.4848 21.3688 25.5656 21.4352 25.6695C21.6586 26.0076 21.8511 26.3671 22.0101 26.7429C22.4965 27.8972 22.8392 29.1899 23.2372 30.4596C23.3477 30.8405 23.3809 31.2099 23.4915 31.6139C23.602 32.0178 23.6905 32.6411 23.8342 33.1721C23.9385 33.5078 23.9944 33.858 24 34.2109C23.9342 34.11 23.8891 33.9961 23.8673 33.8762C23.7568 33.6222 23.6573 33.3568 23.5467 33.0797C23.4362 32.8027 23.204 32.191 23.0161 31.7639C22.9387 31.5561 22.7729 31.3715 22.6955 31.1752C22.6181 30.979 22.6291 30.7712 22.5518 30.5866C22.3196 29.9864 21.7889 29.086 21.192 28.9129C20.794 28.7975 20.2854 29.3861 20.0864 29.617C19.8874 29.8478 19.6663 30.0787 19.4894 30.3211C19.0472 30.9559 18.6603 31.6139 18.2623 32.2949C17.0752 34.4819 16.1365 36.8061 15.4653 39.2204C14.9126 40.9517 14.5256 42.7524 13.8844 44.3914C13.5417 45.2455 13.3648 46.1689 13 47V46.8961C13.0884 46.7691 13.0663 46.5614 13.1216 46.3882C13.2322 45.9843 13.2764 45.5456 13.398 45.107C13.6854 44.0682 13.8513 42.937 14.1276 41.8867C14.2161 41.5981 14.2161 41.3211 14.3045 41.0325C14.7246 39.4858 14.9568 37.8468 15.41 36.3116C15.5538 35.7692 15.598 35.2151 15.7638 34.6842C15.9296 34.1532 16.007 33.7492 16.1618 33.2875C16.4935 32.2487 16.8693 31.1983 17.2673 30.2288C17.5216 29.6055 17.7538 29.0052 18.0412 28.4397C18.1075 28.3012 18.1518 28.1511 18.2291 28.0126C18.6218 27.3122 19.0499 26.634 19.5116 25.9811C19.7813 25.6641 20.0987 25.3951 20.4513 25.1847C20.4291 25.0577 20.5176 25.0462 20.5839 25Z" fill="#318470"/>
<path fill-rule="evenodd" clip-rule="evenodd" d="M6.25417 0.000632756C7.69912 -0.0163438 9.12728 0.308507 10.4199 0.948177C10.8489 1.12997 11.266 1.33838 11.6685 1.57217C11.9602 1.75706 12.2636 1.8495 12.5553 2.02283C13.3371 2.4966 14.1656 2.90104 14.8891 3.36326C15.1341 3.51348 15.3908 3.59437 15.6359 3.73303C16.4188 4.1897 17.253 4.55424 18.1213 4.81924C18.5297 4.95791 18.9731 5.01568 19.4049 5.11968C19.6149 5.11968 19.825 5.11968 20 5.18901C19.3349 5.85923 17.2928 5.6859 16.3243 5.40857C15.8459 5.2699 15.3325 5.20057 14.8307 5.05035C13.9672 4.79613 13.0454 4.63435 12.1586 4.40325C11.9019 4.34547 11.6802 4.40325 11.4234 4.3108C10.7415 4.17781 10.04 4.17781 9.35806 4.3108C8.61653 4.51709 7.96441 4.9598 7.50273 5.57034C7.02755 6.27442 6.68371 7.05716 6.48754 7.88143L6.33585 8.86364V9.09474C6.24833 9.68088 6.24833 10.2766 6.33585 10.8627V11.0823L6.49921 12.1685C6.65091 12.7463 6.73259 13.324 6.91929 13.9134C7.60775 15.9818 8.23786 18.0271 8.92632 20.1071C9.13636 20.7657 9.20637 21.459 9.3814 22.1524V22.7417C9.51082 23.5049 9.55776 24.2797 9.52143 25.0528C9.57463 25.5483 9.57463 26.0479 9.52143 26.5434V26.8554L9.36973 28.5541C9.24138 29.0625 9.27638 29.6172 9.14803 30.1372C8.84464 31.3851 8.78629 32.7256 8.47124 33.9504C8.37789 34.3087 8.40122 34.6438 8.31954 35.002C8.0745 35.9611 8.05116 37.0242 7.81778 38.0064C7.7361 38.3299 7.74777 38.6766 7.67776 38.9886L7.56107 40.4446C7.56107 40.5601 7.56107 40.7335 7.56107 40.8375V41.6001C7.53187 41.8226 7.53187 42.0479 7.56107 42.2703C7.53119 42.6318 7.53119 42.9951 7.56107 43.3565V43.6454L7.67776 44.801C7.74777 45.0667 7.74777 45.3787 7.81778 45.6676C7.99554 46.5177 8.22942 47.3554 8.51791 48.1752C8.84452 48.9749 9.23471 49.7477 9.68479 50.4862C9.89741 50.8603 10.0883 51.2461 10.2566 51.6418C10.3457 51.756 10.4275 51.8757 10.5016 52H10.3382C10.1982 51.8151 9.87149 51.7227 9.67312 51.584C9.31005 51.3379 8.97375 51.0553 8.66961 50.7405L8.41289 50.5093C8.14451 50.1511 7.84112 49.8276 7.58441 49.4694C7.32769 49.1111 7.02431 48.5796 6.74426 48.1289C6.2182 47.1282 5.82594 46.0638 5.57738 44.9627V44.6508C5.42768 43.8187 5.34187 42.9766 5.32066 42.1317C5.26225 41.7254 5.26225 41.313 5.32066 40.9068V40.4446C5.32066 40.1904 5.32066 39.8437 5.39068 39.5779V39.3237C5.49569 38.873 5.39068 38.3415 5.5307 37.8908V37.2437C5.68239 36.5735 5.61238 35.8224 5.76408 35.1638L5.83409 34.6669C6.00912 33.9273 5.92744 33.0838 6.10247 32.3558V31.6047C6.10247 31.3274 6.10247 30.9691 6.18415 30.6803V30.2643C6.18415 30.1025 6.18415 29.8598 6.18415 29.6749C6.23086 29.384 6.23086 29.0876 6.18415 28.7967V28.2652L6.07913 27.1096L5.91577 26.035C5.7174 25.2377 5.60071 24.4403 5.344 23.7239C4.73722 21.9213 3.97875 20.2573 3.24362 18.5355C2.33345 16.1782 1.44662 14.0173 0.653147 11.556C0.548127 11.2209 0.513121 10.9089 0.419771 10.5507C-0.210344 8.38986 -0.187006 5.23524 0.874854 3.52503C1.67852 2.15234 2.90545 1.07098 4.37549 0.439738C4.78657 0.29123 5.20768 0.171529 5.63572 0.0815207L6.25417 0.000632756Z" fill="#318470"/>
<path fill-rule="evenodd" clip-rule="evenodd" d="M33.2839 18H33.1714C33.2389 17.8702 33.1714 17.6578 33.1714 17.4808L33.2727 16.7373L33.959 13.846C34.139 13.2324 34.2627 12.5597 34.4203 11.9106C34.499 11.6274 34.4203 11.356 34.5215 11.0492C34.5988 10.4729 34.5605 9.88604 34.409 9.32621C34.2499 8.75599 33.9624 8.23426 33.5708 7.80501C33.1792 7.37576 32.6949 7.05157 32.1588 6.85978C31.8193 6.74455 31.4737 6.64999 31.1238 6.57655C30.7252 6.48085 30.3175 6.43334 29.9087 6.43494H29.3799L28.3448 6.57655C27.7935 6.71817 27.2197 6.83618 26.7584 7.01319C25.1721 7.56784 23.687 8.28771 22.1794 8.94857C21.5943 9.19639 21.0543 9.37341 20.4017 9.58583C18.9471 10.1788 17.3484 10.2616 15.8451 9.82185C15.387 9.64946 14.952 9.41541 14.5513 9.12559C14.3263 8.94857 14.2025 8.64174 14 8.44112C14.0294 8.43258 14.0606 8.43258 14.09 8.44112C14.3967 8.55826 14.713 8.64518 15.0351 8.70075C15.2938 8.79516 15.5976 8.88956 15.8789 8.96037L16.4864 9.06658C16.8408 9.12149 17.2009 9.12149 17.5553 9.06658C17.7915 9.06658 17.994 9.06658 18.2078 8.94857C18.7806 8.76271 19.3439 8.54607 19.8954 8.29951C22.7756 6.97779 25.0596 5.11322 27.9735 3.8269C28.6267 3.55479 29.2956 3.32619 29.9762 3.14244C30.2349 3.07163 30.46 3.14244 30.73 3.03623C31.0848 2.98792 31.444 2.98792 31.7988 3.03623C32.2151 3.14244 32.6539 3.03623 33.0477 3.20144C34.0045 3.36392 34.924 3.7121 35.7591 4.22814C36.8842 5.10142 37.3117 7.35542 36.7604 9.2436C36.4149 10.3736 36.0054 11.4809 35.5341 12.5597C35.3541 12.9845 35.1066 13.4094 34.9265 13.846C34.6115 14.5895 34.364 15.333 34.0602 16.0882C33.9027 16.5013 33.734 16.9379 33.5652 17.3509C33.4466 17.5545 33.3521 17.7724 33.2839 18Z" fill="#318470"/>
<path fill-rule="evenodd" clip-rule="evenodd" d="M75.9303 8.36271C75.8577 8.07702 75.7151 7.81379 75.5155 7.59661C75.3158 7.37942 75.0652 7.21509 74.7862 7.11833C74.626 7.11833 74.443 7.11833 74.2713 7.027H74.1455C73.7627 6.97298 73.3729 7.00021 73.0014 7.10692C72.8069 7.17541 72.6353 7.19825 72.4636 7.27816C71.9758 7.50112 71.5183 7.785 71.1021 8.12297C70.9305 8.23713 70.7818 8.40838 70.6216 8.52254L70.2898 8.80795C70.2212 8.86503 70.164 8.93353 70.0953 9.00203C69.9702 9.09655 69.8552 9.20367 69.7521 9.32168C69.6377 9.48151 69.4775 9.59567 69.3631 9.7555C69.0656 10.1437 68.7109 10.4861 68.4135 10.8971C67.6927 11.8789 66.9947 12.895 66.3312 13.9453C65.9765 14.5047 65.679 15.0869 65.3243 15.692C65.2214 15.8632 65.1527 16.0573 65.0383 16.24C64.6722 16.8565 64.3747 17.5186 64.0315 18.1579C63.5509 19.0826 63.0933 20.0416 62.67 21.0006C62.3382 21.7655 62.0407 22.5304 61.7089 23.2838C61.2513 24.3113 60.8508 25.4073 60.4733 26.5147C60.336 26.9485 60.2216 27.3937 60.0843 27.8161C60.0843 27.976 60.0156 28.113 59.9699 28.2614C59.8211 28.7294 59.741 29.2203 59.6037 29.7112C59.6037 29.8939 59.5237 30.0994 59.4664 30.3049C59.4228 30.4542 59.3922 30.607 59.3749 30.7615C59.2852 30.7435 59.1998 30.7087 59.1232 30.6588C58.9629 30.53 58.8403 30.3604 58.7685 30.1679C58.6119 29.6462 58.5423 29.1024 58.5626 28.5582C58.5278 28.2318 58.5278 27.9027 58.5626 27.5764V27.3823C58.5626 27.1426 58.5626 26.8686 58.5626 26.6517C58.5686 26.568 58.5686 26.4841 58.5626 26.4005C58.6198 26.1722 58.5626 25.8982 58.6541 25.6813C58.6986 25.6205 58.7369 25.5555 58.7685 25.4872C58.8372 25.2018 58.7685 24.905 58.8944 24.6196C59.0088 24.1172 59.0431 23.5807 59.169 23.0898C59.169 22.9642 59.169 22.8729 59.169 22.7473C59.2719 22.3477 59.3063 21.9367 59.4207 21.5372C59.7067 20.5097 59.9127 19.4936 60.2444 18.5118C60.5762 17.53 60.7707 16.7423 61.114 15.9089C61.2513 15.5892 61.3085 15.2696 61.4343 14.9613C61.5602 14.6531 61.6517 14.3106 61.7776 13.991C61.9949 13.4772 62.178 12.9292 62.3611 12.3698C62.3611 12.1758 62.4412 11.9931 62.4755 11.799C62.5788 11.3058 62.5788 10.7967 62.4755 10.3035C62.4196 10.0056 62.3431 9.71185 62.2467 9.42443C62.0688 8.98362 61.8383 8.56582 61.5602 8.18005C61.4235 7.96785 61.2536 7.77897 61.0568 7.62065C60.9938 7.55022 60.9249 7.48529 60.8508 7.42657L60.5305 7.22108C60.3977 7.10267 60.2278 7.03405 60.0499 7.027H59.9241C59.831 7.09463 59.7626 7.19089 59.7296 7.30099C59.6858 7.43859 59.6551 7.58002 59.6381 7.7234V7.98597C59.558 8.33988 59.6381 8.7052 59.5008 9.05911C59.3635 9.41301 59.4207 9.65276 59.3406 9.93816C59.2605 10.2236 59.2262 10.5318 59.1346 10.8401C58.9173 11.6049 58.78 12.4155 58.5511 13.1233C58.4482 13.4544 58.3795 13.774 58.2766 14.0823C58.1736 14.3905 58.2079 14.4933 58.002 14.6417C56.8876 15.3898 55.6944 16.0138 54.4438 16.5026C53.8946 16.7309 53.2996 16.8907 52.7161 17.0734C52.1326 17.256 51.8237 17.2789 51.3775 17.4044C50.4393 17.667 49.444 17.8268 48.5058 18.0894C48.1625 18.1922 47.7964 18.2378 47.4646 18.3292C47.3273 18.3292 47.2015 18.3292 47.0528 18.4091C46.5608 18.5461 46.0345 18.6032 45.5425 18.763C44.6387 19.0256 43.7348 19.2311 42.8538 19.5165C41.9729 19.8019 41.3322 20.0302 40.5656 20.3384L39.6961 20.738C38.8261 21.1154 37.9978 21.5822 37.2248 22.1308C36.9731 22.302 36.7442 22.519 36.504 22.7016C36.2637 22.8843 36.3667 22.85 36.298 22.9071C36.1791 23.0047 36.0682 23.1116 35.9662 23.2268C35.7648 23.4186 35.5774 23.6246 35.4056 23.8432C35.2683 24.0145 35.0967 24.1743 34.9709 24.3456C34.4892 24.9578 34.075 25.62 33.7352 26.3206C33.5565 26.7499 33.3999 27.1881 33.2661 27.6335C33.2089 27.7933 33.2089 27.9417 33.1632 28.1015C32.9456 29.0174 32.9456 29.9713 33.1632 30.8871C33.3119 31.3438 33.4835 31.789 33.6666 32.2114C33.7783 32.5084 33.9161 32.7949 34.0784 33.0676C34.6156 33.8586 35.3879 34.4615 36.2866 34.7915C36.5271 34.8657 36.7716 34.9267 37.0188 34.9742C37.1332 34.9742 37.2362 34.9742 37.3506 34.9742C37.5244 35.0086 37.7032 35.0086 37.8769 34.9742C38.2316 34.9057 38.632 34.9742 38.735 34.6317C38.838 34.2892 38.5634 34.1979 38.3689 34.0723C38.1744 33.9467 38.1286 33.8896 38.0028 33.7983L37.9341 33.7184C37.8023 33.6191 37.6832 33.5041 37.5795 33.3759L37.4307 33.2389C37.2934 33.0562 37.1218 32.8964 36.996 32.7137C36.7124 32.2725 36.4964 31.7916 36.3552 31.2867C36.3552 31.104 36.3552 30.9328 36.2408 30.7501C36.009 29.6159 36.0443 28.4435 36.3438 27.3252C36.4429 26.8816 36.5768 26.4465 36.7442 26.0238C37.5333 24.2389 38.81 22.7117 40.4283 21.6171C41.3839 20.9849 42.4088 20.464 43.4831 20.0644C43.7119 19.9731 43.9408 19.9274 44.1696 19.8361C45.0277 19.5165 45.9544 19.311 46.8468 19.0256C47.0642 18.9456 47.293 18.9342 47.5218 18.8543C48.1053 18.6602 48.7461 18.5575 49.3524 18.3862C49.5355 18.3862 49.7071 18.3177 49.8902 18.2721C50.0732 18.2264 50.6453 18.1123 51.0343 18.0209L51.4233 17.9524C51.8809 17.8268 52.3386 17.7355 52.7619 17.5985C53.1852 17.4615 53.4141 17.4729 53.7573 17.3702C54.1005 17.2674 54.295 17.2674 54.5467 17.1989H54.8213C55.3133 17.0619 55.8281 16.9706 56.2858 16.8108C56.7434 16.651 56.8693 16.651 57.1439 16.5368C57.2469 16.5368 57.3727 16.5368 57.4528 16.4226C57.2583 16.8907 57.1782 17.393 57.018 17.8839C56.8579 18.3748 56.6519 19.2425 56.4689 19.916C56.3773 20.2014 56.343 20.4983 56.2629 20.7837C56.1828 21.0691 56.1027 21.6627 55.9998 22.0851C55.8968 22.5075 55.8739 23.0213 55.8167 23.4893C55.8167 23.6263 55.8167 23.7748 55.8167 23.9117C55.8167 24.0487 55.8167 24.3456 55.8167 24.5625C55.8167 24.7794 55.8167 24.7908 55.8167 24.8935V25.0876C55.8167 25.0876 55.8167 25.2475 55.8167 25.3274C55.8167 25.4073 55.8167 25.5443 55.8167 25.6584C55.7993 25.8369 55.7993 26.0166 55.8167 26.195C55.7781 27.2148 55.8703 28.2353 56.0913 29.2318C56.0913 29.4372 56.1714 29.6199 56.24 29.814C56.3344 30.262 56.5203 30.6858 56.786 31.059C57.0517 31.4322 57.3917 31.7467 57.7846 31.9831C58.1888 32.2055 58.6562 32.2859 59.1118 32.2114C59.3529 32.1675 59.5735 32.0474 59.741 31.8689C59.8771 31.6639 59.9741 31.4355 60.0271 31.1954C60.0271 31.0698 60.0271 30.9328 60.0843 30.7958C60.1987 30.3277 60.2444 29.8368 60.3817 29.3916C60.6106 28.6153 60.7822 27.839 61.0568 27.1083C61.1254 26.9371 61.1483 26.7544 61.2169 26.5832C61.4229 26.0923 61.5716 25.5785 61.7776 25.0876C62.178 24.1172 62.5784 23.1469 63.0018 22.1993C63.2878 21.56 63.5967 20.9207 63.9171 20.3156C64.0887 19.9731 64.2374 19.6078 64.4319 19.2881C64.6264 18.9685 64.615 18.8657 64.7408 18.6602C65.0955 18.0894 65.3701 17.4501 65.7133 16.8793C65.8392 16.6852 65.9078 16.4797 66.0222 16.2971C66.4341 15.6235 66.7888 14.9157 67.1664 14.2535C67.441 13.8197 67.7613 13.4201 68.0473 13.0206C69.0371 11.6599 70.2753 10.4979 71.6971 9.59567C72.2319 9.28876 72.8 9.04363 73.3904 8.86503C73.6192 8.79653 73.8709 8.79653 74.134 8.73945C74.2852 8.71075 74.4405 8.71075 74.5917 8.73945H74.7862C75.0259 8.76639 75.2631 8.8122 75.4956 8.87645C75.5756 8.87645 75.8617 9.07052 75.9303 9.03627C75.999 9.00203 76.0447 8.51112 75.9303 8.36271Z" fill="#1E1E1E"/>
<path fill-rule="evenodd" clip-rule="evenodd" d="M114.921 23.2602C114.895 23.2049 114.852 23.1594 114.798 23.1303C114.745 23.1012 114.683 23.0901 114.623 23.0985C114.359 23.1678 114.083 23.214 113.831 23.3065C113.107 23.5375 112.373 23.7108 111.684 23.9996C111.454 24.092 111.213 24.1614 110.983 24.2653C110.868 24.3284 110.744 24.375 110.616 24.404C110.582 24.2766 110.536 24.1528 110.478 24.0343C110.386 23.8263 110.329 23.6068 110.249 23.4104C110.168 23.214 110.111 22.9945 110.031 22.7866L109.376 21.1808C109.491 21.039 109.595 20.8884 109.686 20.7302C109.893 20.4183 110.099 20.1179 110.306 19.7944C111.101 18.6462 111.745 17.3998 112.223 16.086C112.223 15.9127 112.223 15.7279 112.315 15.543C112.361 15.2755 112.361 15.0019 112.315 14.7344C112.299 14.6062 112.276 14.4789 112.246 14.3531C112.159 14.0461 111.993 13.7673 111.765 13.5445C111.538 13.3216 111.256 13.1623 110.949 13.0823C110.57 12.9944 110.178 12.987 109.796 13.0606C109.415 13.1342 109.053 13.2872 108.733 13.5098C108.541 13.6156 108.357 13.7353 108.182 13.8679C108.076 13.9495 107.983 14.0469 107.907 14.1567C107.838 14.2491 107.734 14.33 107.677 14.4224C107.432 14.7766 107.243 15.1661 107.114 15.5777C107.044 15.8208 106.986 16.0676 106.942 16.3171C106.942 16.4095 106.942 16.4904 106.942 16.5943C106.942 16.6983 106.942 16.9409 106.873 17.1142V17.3684C106.85 17.4866 106.85 17.6082 106.873 17.7265C106.873 17.9113 106.873 18.1193 106.873 18.3041C106.873 18.489 106.873 18.5236 106.873 18.6276C106.873 18.7316 106.954 19.2284 107.011 19.4941C107.068 19.7598 107.16 20.3721 107.275 20.788C107.295 20.9714 107.33 21.153 107.378 21.3309C107.347 21.4001 107.308 21.4658 107.264 21.5273C107.16 21.6891 107.091 21.8508 107 22.001C106.908 22.1512 106.885 22.2436 106.816 22.3591C106.644 22.648 106.494 22.9599 106.311 23.2487C106.127 23.5375 106.058 23.7917 105.897 24.0574C105.599 24.531 105.346 25.0278 105.048 25.4899C104.612 26.1946 104.118 26.8647 103.636 27.5347C103.463 27.7658 103.257 27.9737 103.085 28.2048L102.958 28.3088C102.837 28.4773 102.689 28.6255 102.522 28.7478L102.361 28.9326C102.201 29.0481 102.063 29.2099 101.902 29.3254L101.581 29.5796C101.502 29.6162 101.429 29.6628 101.362 29.7182C101.248 29.3733 101.248 29.0002 101.362 28.6554C101.559 28.0069 101.793 27.3705 102.063 26.7492C102.453 25.8481 102.843 24.9816 103.28 24.1267C103.417 23.861 103.544 23.5953 103.682 23.3411C103.724 23.2339 103.774 23.1297 103.831 23.0292C103.957 22.8097 104.06 22.5671 104.187 22.336C104.313 22.105 104.451 21.8162 104.577 21.5389C104.83 20.9497 105.14 20.3836 105.346 19.7251C105.427 19.4825 105.45 19.2168 105.519 18.9395C105.559 18.6251 105.559 18.3067 105.519 17.9922C105.519 17.9345 105.519 17.8767 105.519 17.8189C105.519 17.7612 105.45 17.4261 105.392 17.2413C105.262 16.8284 105.068 16.4386 104.818 16.086C104.749 15.9705 104.634 15.8896 104.566 15.7856C104.389 15.5311 104.167 15.3117 103.911 15.1387C103.647 15.0463 103.463 15.2889 103.417 15.4737L103.36 15.9474L103.222 16.8947C103.222 17.1489 103.119 17.3915 103.062 17.6456C103.004 17.8998 102.809 18.4428 102.648 18.8009C102.231 19.8107 101.74 20.7877 101.179 21.7237L100.031 23.5837C99.9158 23.7686 99.8469 23.9534 99.7436 24.1383C99.6047 24.3582 99.4856 24.5902 99.3877 24.8314C99.3188 24.9816 99.2499 25.1202 99.1925 25.2589C99.1747 25.326 99.1516 25.3917 99.1236 25.4553C98.7332 26.1138 98.274 26.7376 97.8262 27.3615C97.654 27.6041 97.4359 27.8236 97.2522 28.0662C97.0685 28.3088 97.1029 28.1932 97.0455 28.2626C96.839 28.5536 96.5777 28.8009 96.2763 28.9904C96.1272 29.0918 95.9451 29.1315 95.7677 29.1014C95.5903 29.0713 95.4312 28.9736 95.3234 28.8286C95.2456 28.6549 95.1878 28.4727 95.1512 28.2857C94.9101 27.2874 94.9101 26.2456 95.1512 25.2473C95.2086 24.9932 95.2201 24.739 95.2775 24.4964C95.3349 24.2538 95.3923 23.9419 95.4612 23.6877C95.4493 23.5957 95.4493 23.5025 95.4612 23.4104C95.4612 23.3411 95.5989 23.2718 95.6563 23.214C95.7725 23.1032 95.88 22.9835 95.9778 22.8559L96.1385 22.7057C96.2763 22.5209 96.46 22.3822 96.5978 22.1974C96.9307 21.7584 97.3326 21.3887 97.654 20.9382L97.8722 20.7071C98.2281 20.2219 98.6299 19.7713 99.0203 19.2861C100.374 17.5546 101.529 15.6751 102.465 13.6831C102.697 13.052 102.893 12.4078 103.05 11.7538C103.13 11.4534 103.119 11.1299 103.199 10.818C103.28 10.5061 103.199 10.483 103.199 10.3212C103.228 10.0756 103.228 9.82746 103.199 9.58185C103.199 9.40856 103.199 9.23527 103.199 9.07353C103.199 8.91179 103.073 8.44969 102.97 8.17242C102.809 7.71031 102.694 7.15578 102.212 7.01715C102.014 6.97971 101.81 7.0039 101.626 7.08647C101.249 7.24041 100.897 7.45072 100.582 7.71031C100.067 8.086 99.6001 8.5245 99.1925 9.01577C99.0088 9.24682 98.7792 9.46632 98.607 9.72048C98.1936 10.275 97.8033 10.8758 97.4589 11.4187C95.9882 13.6607 94.7203 16.0308 93.6701 18.5005C93.5438 18.7894 93.4635 19.0782 93.3372 19.3785C93.142 19.8638 92.9468 20.3836 92.7861 20.8804C92.6828 21.1808 92.6254 21.4696 92.522 21.7584L92.4531 22.0819C92.3763 22.2384 92.288 22.389 92.1891 22.5324C92.0169 22.8328 91.8676 23.1447 91.6954 23.4335C91.5232 23.7224 91.4313 23.9765 91.2706 24.2422C90.8688 24.9007 90.5014 25.5708 90.1225 26.1831L89.1007 27.5001C88.894 27.7774 88.63 28.0315 88.4118 28.3088L88.3085 28.4128C88.2052 28.5052 88.1248 28.5976 88.0215 28.6785L87.8378 28.8864C87.6426 29.0366 87.4704 29.2214 87.2637 29.3716L86.9767 29.5911C86.9767 29.5911 86.8619 29.5911 86.816 29.6835C86.816 29.5911 86.816 29.5103 86.7356 29.4063C86.7047 29.2538 86.7047 29.0966 86.7356 28.9442C86.7356 28.8402 86.7356 28.7478 86.7356 28.6323C86.7885 28.4169 86.8537 28.2047 86.9308 27.9969C86.9997 27.8351 87.0226 27.6734 87.0915 27.5232L87.4704 26.599C87.8837 25.6285 88.3085 24.6928 88.7792 23.7801C88.94 23.4797 89.0663 23.1563 89.25 22.8675C89.25 22.775 89.3188 22.6711 89.3762 22.5786C89.6288 22.1512 89.824 21.6891 90.0536 21.2501C90.392 20.6618 90.6837 20.0476 90.9262 19.4132C90.988 19.1811 91.0379 18.9458 91.0754 18.7085C91.1372 18.2685 91.1099 17.8205 90.9951 17.3915C90.9281 17.1342 90.8397 16.883 90.731 16.6406C90.3666 15.8782 89.7718 15.2514 89.0318 14.8499C88.6786 14.672 88.2938 14.5661 87.8998 14.5383C87.5057 14.5105 87.1101 14.5615 86.7356 14.6881C85.8841 14.9666 85.0876 15.3928 84.382 15.9474C84.1754 16.0976 83.9917 16.2824 83.785 16.4442C83.5783 16.6059 83.6472 16.5943 83.5669 16.6637C83.3354 16.8406 83.127 17.0463 82.9469 17.2759C82.855 17.3915 82.7287 17.4839 82.6369 17.611L82.5221 17.715C82.2925 18.0269 82.0169 18.3041 81.7758 18.6276C81.5347 18.9511 81.397 19.0897 81.2247 19.3323C80.8344 19.8753 80.4555 20.4298 80.0766 21.0075C79.6978 21.5851 79.537 21.9432 79.2845 22.4285L79.0089 22.9945C79.0154 23.0444 79.0154 23.0949 79.0089 23.1447C78.8252 23.4566 78.6645 23.7801 78.4693 24.092C78.033 24.8083 77.5968 25.5246 77.1375 26.2177C76.839 26.6683 76.5405 27.0957 76.219 27.5232C76.0927 27.708 75.932 27.8698 75.8057 28.0431L75.7139 28.1239C75.533 28.3636 75.3206 28.5773 75.0824 28.7593C74.9676 28.8402 74.8872 28.9673 74.7839 29.0481C74.5264 29.2603 74.254 29.4533 73.9688 29.6258C73.761 29.0083 73.7214 28.3461 73.854 27.708C74.0573 26.9479 74.3665 26.2206 74.7724 25.5477C74.9446 25.2473 75.0709 24.9123 75.2432 24.6235C75.4154 24.3346 75.3809 24.3346 75.4728 24.196C75.7139 23.7917 75.9665 23.3873 76.219 22.983C76.4716 22.5786 76.7816 21.9432 77.0916 21.4465C77.4016 20.9497 77.4705 20.7187 77.6771 20.3721C77.7345 20.2912 77.746 20.1988 77.8034 20.1179C78.033 19.7367 78.2052 19.3208 78.4349 18.9626C78.4349 18.8702 78.5038 18.7778 78.5612 18.6969C78.6186 18.6161 78.8252 18.1771 78.963 17.9113C79.1008 17.6456 79.3074 17.2182 79.4682 16.8601C79.5485 16.6868 79.6633 16.5135 79.7322 16.3286C79.9848 15.7741 80.2374 15.2311 80.49 14.6535C80.5933 14.4224 80.7081 14.1798 80.8114 13.9257C80.8714 13.8327 80.9178 13.7316 80.9492 13.6253C81.4314 13.6253 81.9021 13.6253 82.4188 13.6253C82.644 13.6485 82.8709 13.6485 83.0961 13.6253H83.2569C83.3832 13.6253 83.5439 13.6253 83.6702 13.6253H84.3016C84.8823 13.5344 85.4545 13.3953 86.0123 13.2094C86.4383 13.0097 86.8423 12.7658 87.2178 12.4816C87.5948 12.221 87.8769 11.8438 88.0215 11.4072C88.1084 11.1035 88.0798 10.7781 87.9411 10.4945C87.7345 10.4945 87.5278 10.6794 87.4015 10.7833C87.0112 11.0606 86.5864 11.3148 86.1616 11.5689C85.8459 11.736 85.5199 11.8826 85.1857 12.0079L84.9561 12.0772C83.7999 12.5254 82.5666 12.7375 81.3281 12.7011C81.3827 12.5041 81.4598 12.3142 81.5577 12.135C81.7184 11.7422 81.8218 11.3148 81.9595 10.9104L82.0629 10.4021C82.1214 10.0968 82.1214 9.78313 82.0629 9.47788C81.8999 8.81394 81.494 8.23633 80.9262 7.8605C80.7196 7.69876 80.5129 7.56013 80.2833 7.40994C80.2288 7.36229 80.1646 7.32724 80.0951 7.30728C80.0257 7.28732 79.9528 7.28293 79.8815 7.29442C79.8009 7.3114 79.7255 7.34752 79.6616 7.39977C79.5977 7.45202 79.5471 7.51888 79.5141 7.59479C79.5076 7.70251 79.5076 7.81054 79.5141 7.91826C79.5141 8.16087 79.5141 8.42658 79.4107 8.66919C79.2575 9.34467 79.0697 10.0118 78.8482 10.6678C78.7793 10.8411 78.7563 11.0259 78.676 11.1992C78.5956 11.3725 78.4923 11.7884 78.366 12.0772C78.2916 12.2283 78.2338 12.3872 78.1938 12.5509C77.9835 12.5634 77.7726 12.5634 77.5623 12.5509C77.4131 12.5509 77.2523 12.5509 77.1145 12.5509C76.9768 12.5509 76.7586 12.5509 76.5864 12.5509L75.8976 12.4816C75.6794 12.4816 75.4268 12.4816 75.1972 12.3892H75.0709C74.9332 12.3892 74.7724 12.3892 74.6347 12.3892C74.4555 12.3658 74.2742 12.3658 74.0951 12.3892C74.1245 12.2365 74.1245 12.0797 74.0951 11.927C74.072 11.7459 74.0296 11.5677 73.9688 11.3956C73.7143 10.8645 73.3164 10.4161 72.8207 10.1017C72.6025 9.95154 72.1892 9.58185 71.8677 9.82446C71.6893 10.0307 71.5528 10.2701 71.4659 10.5292C71.2527 11.1104 71.0763 11.7046 70.9378 12.3083C70.8689 12.5393 70.8574 12.7935 70.8 13.0246V13.3134C70.7075 13.6281 70.7362 13.9663 70.8804 14.2607C71.0147 14.428 71.1968 14.5498 71.4021 14.6098C71.6074 14.6697 71.826 14.6648 72.0285 14.5957C72.2135 14.4927 72.3835 14.3644 72.5336 14.2145C72.8918 13.9786 73.2097 13.686 73.4751 13.348C73.5554 13.2441 73.6588 13.1747 73.7277 13.0708C74.1285 13.0302 74.5323 13.0302 74.9332 13.0708H75.1283H75.4039C75.5761 13.0708 75.7598 13.0708 75.909 13.1285L76.4831 13.1978C76.7701 13.2672 77.0801 13.2672 77.3671 13.348C77.5573 13.407 77.754 13.4419 77.9527 13.452C77.8939 13.6197 77.821 13.7821 77.7345 13.9372C77.6197 14.2145 77.5049 14.4686 77.3786 14.7459C77.2523 15.0232 77.2408 15.0001 77.1834 15.1271C77.0542 15.4202 76.9085 15.7056 76.7472 15.982C76.5864 16.2478 76.4831 16.5366 76.3224 16.7907C76.1616 17.0449 76.2305 17.0102 76.1731 17.1142C75.932 17.507 75.7368 17.9576 75.4957 18.3503C75.4154 18.489 75.3694 18.6276 75.2891 18.7547C75.0135 19.2168 74.7839 19.7251 74.5084 20.1872C74.405 20.3605 74.3361 20.5454 74.2328 20.7187C73.6703 21.6429 73.1995 22.648 72.637 23.5837C72.4418 23.9188 72.304 24.2653 72.0974 24.5888C71.6037 25.4206 71.0985 26.2293 70.5589 27.0149C70.2948 27.3846 70.0078 27.7196 69.7323 28.0777C69.6404 28.2164 69.4912 28.3203 69.3878 28.4474C69.2396 28.5351 69.0816 28.6049 68.9171 28.6554L68.7449 28.8402C68.5268 29.0019 68.3546 29.2099 68.1364 29.3601C67.9985 29.4364 67.8678 29.5254 67.7461 29.6258C67.6314 29.2809 67.6314 28.9078 67.7461 28.5629C67.9428 27.9145 68.1767 27.278 68.4464 26.6567C68.8368 25.7441 69.2386 24.8661 69.6749 24.0112L70.0767 23.2256C70.1341 23.1216 70.1571 23.0292 70.2145 22.9368C70.2719 22.8443 70.4441 22.4747 70.5704 22.2436C70.6967 22.0126 70.8344 21.7237 70.9607 21.4465C71.2565 20.8288 71.5209 20.1965 71.7529 19.5518C71.816 19.32 71.8658 19.0847 71.9022 18.8471C71.9484 18.5331 71.9484 18.2139 71.9022 17.8998C71.9022 17.842 71.9022 17.7843 71.9022 17.7265C71.8724 17.5314 71.8302 17.3385 71.7759 17.1489C71.6457 16.736 71.452 16.3462 71.2018 15.9936C71.133 15.8781 71.0181 15.7972 70.9493 15.6932C70.8804 15.5893 70.49 15.104 70.2489 15.0347C70.1847 15.017 70.1164 15.0223 70.0557 15.0497C69.9949 15.0771 69.9456 15.1249 69.916 15.1849C69.8776 15.2321 69.8431 15.2824 69.8126 15.3351C69.8126 15.6239 69.8126 15.9127 69.7323 16.2015C69.6289 16.6752 69.606 17.172 69.4682 17.611C69.3878 17.8651 69.319 18.1308 69.2271 18.3735L68.8482 19.2399C68.7679 19.4248 68.7105 19.5865 68.6186 19.7598C68.2168 20.5454 67.8264 21.3309 67.3557 22.0703L66.288 23.7917C66.288 23.8956 66.2076 23.9996 66.1502 24.092C65.8488 24.6251 65.5989 25.1861 65.4039 25.7672C64.9926 26.7649 64.8925 27.8648 65.1169 28.9211C65.2517 29.4711 65.5827 29.9521 66.0469 30.2727C66.1272 30.2727 66.2191 30.3305 66.3109 30.3767C66.4028 30.4229 66.4487 30.4691 66.5291 30.5038C66.8439 30.5969 67.1787 30.5969 67.4935 30.5038C67.6727 30.4536 67.8459 30.3838 68.0101 30.2958C68.3007 30.1391 68.5772 29.9574 68.8368 29.7529C68.9401 29.672 69.0205 29.5565 69.1238 29.4872C69.3026 29.3574 69.4612 29.2017 69.5945 29.025L69.7667 28.8633C69.9275 28.6438 70.1111 28.4705 70.2719 28.251C70.4326 28.0315 70.4326 28.0777 70.5015 27.9853L70.9493 27.373C71.0181 27.269 71.11 27.1766 71.1674 27.0726C71.1607 27.2592 71.1377 27.4447 71.0985 27.6272C71.1042 27.7349 71.1042 27.8429 71.0985 27.9506C71.0756 28.1309 71.0756 28.3134 71.0985 28.4936C71.1382 28.7601 71.1996 29.0229 71.2822 29.2792C71.3813 29.5663 71.5431 29.8275 71.7557 30.0434C71.9683 30.2593 72.2263 30.4245 72.5107 30.5269C72.7457 30.5937 72.9914 30.6134 73.234 30.5847L73.6128 30.5269C73.8749 30.4683 74.1292 30.3792 74.3706 30.2612C75.236 29.7146 75.9915 29.0092 76.5979 28.1817C76.7701 27.9275 76.9883 27.6965 77.172 27.4539L77.8149 26.5297C77.8847 26.406 77.9613 26.2865 78.0445 26.1715C78.0385 26.3543 78.0155 26.5361 77.9756 26.7145V26.9571C77.941 27.2178 77.941 27.482 77.9756 27.7427C77.9756 27.9391 77.9756 28.1355 78.0445 28.3203C78.1652 28.9547 78.5023 29.5267 78.9974 29.9377C79.209 30.0703 79.4422 30.1642 79.6863 30.215H79.8815C80.0481 30.2499 80.22 30.2499 80.3866 30.215C80.9985 30.0278 81.568 29.7216 82.0629 29.3139C82.2121 29.1983 82.3384 29.0366 82.4876 28.9211C82.6446 28.8076 82.7838 28.6713 82.901 28.5167L83.0158 28.4243C83.0961 28.3319 83.188 28.2395 83.2569 28.147C83.3258 28.0546 83.3832 28.0315 83.4406 27.9622C83.498 27.8929 83.7735 27.5579 83.9343 27.3384C84.095 27.1188 84.0835 27.1997 84.1294 27.1073C84.1161 27.2302 84.1161 27.3541 84.1294 27.477C84.0546 27.8584 84.0546 28.2508 84.1294 28.6323C84.1391 28.7538 84.1622 28.874 84.1983 28.9904C84.3615 29.5302 84.7066 29.9959 85.1742 30.3074C85.3029 30.3799 85.4425 30.4307 85.5875 30.4576C85.8803 30.5688 86.1951 30.6084 86.506 30.5731L86.9882 30.3998C87.2935 30.2545 87.5822 30.0763 87.8493 29.8684C87.9526 29.7875 88.0444 29.672 88.1478 29.6027C88.3287 29.463 88.4942 29.3042 88.6415 29.129L88.8481 28.9211C89.0089 28.7131 89.2155 28.5398 89.3762 28.3203C89.8814 27.6387 90.4095 26.9687 90.8688 26.2408L91.661 24.9816L91.9135 24.5541C91.9411 24.4925 91.9758 24.4344 92.0169 24.3809C92.0169 24.6235 92.0169 24.9123 91.925 25.1549C91.8332 25.3975 91.925 25.4437 91.925 25.5708V26.0098C91.8952 26.3249 91.8952 26.642 91.925 26.9571C91.925 27.0726 91.925 27.1882 91.925 27.3037C91.925 27.4192 91.9939 27.7658 92.0628 27.9737C92.1656 28.4058 92.3551 28.8121 92.6196 29.1677C92.8842 29.5233 93.2182 29.8207 93.6012 30.0417C94.1544 30.3584 94.7994 30.4727 95.4267 30.3652C96.3917 29.9628 97.2208 29.2889 97.8148 28.4243C98.0984 28.1013 98.3629 27.7619 98.607 27.4077C98.5725 27.7186 98.5725 28.0325 98.607 28.3434C98.607 28.5514 98.607 28.7593 98.7103 28.9442C98.8538 29.4933 99.1877 29.9727 99.6517 30.2958C99.7321 30.2958 99.8239 30.3536 99.9158 30.3998C100.042 30.4774 100.177 30.5394 100.318 30.5847C100.662 30.6423 101.016 30.6023 101.339 30.4691C101.674 30.3273 101.99 30.145 102.281 29.9262C102.442 29.7991 102.591 29.6489 102.752 29.5334L102.889 29.3716C103.006 29.2867 103.111 29.1856 103.199 29.0713L103.36 28.8864C103.521 28.6669 103.705 28.4936 103.865 28.2741C104.026 28.0546 104.026 28.1008 104.095 28.0084C104.313 27.708 104.554 27.4077 104.772 27.0957C105.392 26.1946 105.92 25.2473 106.54 24.3115C106.793 23.8956 107.011 23.4797 107.241 23.0523C107.333 22.8906 107.413 22.7173 107.493 22.5555C107.52 22.4732 107.559 22.3953 107.608 22.3245C107.608 22.3245 107.608 22.4631 107.608 22.5324C107.608 22.6017 107.608 22.8675 107.711 23.0407C107.826 23.4451 107.861 23.8956 107.964 24.3115C107.964 24.4964 107.964 24.6812 108.033 24.8545C108.102 25.0278 108.102 25.409 108.125 25.6863C108.148 25.9636 108.056 25.7903 107.998 25.8249L107.631 26.0907C107.252 26.3448 106.919 26.6567 106.563 26.934C106.403 27.0611 106.276 27.2228 106.116 27.3499C106.056 27.4063 106.003 27.4682 105.955 27.5347L105.771 27.708C105.622 27.916 105.45 28.0893 105.289 28.2972C105.128 28.5052 104.807 28.9095 104.6 29.2445C104.142 29.9789 103.794 30.7768 103.567 31.6128C103.348 32.4027 103.348 33.2375 103.567 34.0274C103.737 34.4397 103.989 34.813 104.306 35.1247C104.624 35.4365 105.001 35.6802 105.415 35.8411C105.622 35.8993 105.833 35.938 106.047 35.9567C106.366 36.0144 106.692 36.0144 107.011 35.9567H107.218L107.723 35.8642C108.218 35.7201 108.685 35.4894 109.101 35.1826C109.88 34.563 110.469 33.7339 110.8 32.7912C110.926 32.4793 110.995 32.1212 111.098 31.7746C111.202 31.428 111.202 31.0814 111.282 30.7233V30.3652C111.282 30.1341 111.282 29.8568 111.362 29.6142V29.3832C111.397 29.1186 111.397 28.8506 111.362 28.586C111.362 28.4012 111.362 28.2279 111.362 28.0546C111.362 27.8813 111.362 27.7774 111.362 27.6387C111.293 27.2228 111.225 26.8069 111.167 26.4026C111.11 25.9982 111.075 25.8712 110.995 25.617C110.934 25.4449 110.892 25.2668 110.869 25.0856C110.991 25.0549 111.107 25.0041 111.213 24.9354L111.936 24.6466C112.648 24.3462 113.417 24.1498 114.164 23.9072C114.439 23.8148 114.807 23.8148 114.933 23.5722C115.059 23.3296 114.979 23.3411 114.921 23.2602ZM96.0582 21.5851C96.15 21.3425 96.2304 21.1114 96.3222 20.8804C96.4141 20.6493 96.483 20.4183 96.5863 20.1872C96.7815 19.6905 96.9881 19.1821 97.1948 18.6969C97.4014 18.2117 97.4933 17.8767 97.6655 17.4723C97.8377 17.068 98.0099 16.7792 98.1822 16.4442C98.3544 16.1091 98.4921 15.7857 98.6873 15.4737C98.6873 15.3698 98.7677 15.2658 98.8251 15.1734C99.1121 14.6881 99.3877 14.1914 99.6862 13.7293C99.9847 13.2672 100.191 12.9206 100.467 12.5162C100.605 12.3314 100.777 12.1581 100.915 11.9733C101.086 11.7369 101.287 11.5234 101.512 11.3379L101.581 11.257C101.689 11.1654 101.809 11.0878 101.936 11.0259H102.097H102.212C102.212 11.0259 102.304 11.0259 102.327 11.1415C102.379 11.4276 102.355 11.7225 102.258 11.9964C102.041 12.765 101.753 13.5115 101.397 14.226C100.66 15.619 99.8395 16.9654 98.9399 18.2579C98.6529 18.6623 98.3544 19.0435 98.0559 19.4132C97.7574 19.7829 97.344 20.2334 97.0111 20.6724C96.8733 20.8573 96.7011 21.0075 96.5633 21.1808C96.4256 21.3541 96.2648 21.4811 96.1385 21.6429C96.0122 21.8046 96.0008 21.7584 95.9434 21.8393C95.9663 21.7815 96.0237 21.7237 96.0582 21.5851ZM85.7253 23.1216L85.3235 23.8263L85.2431 24.0112C85.1674 24.1344 85.0984 24.2617 85.0364 24.3924C84.9675 24.5541 84.8872 24.7043 84.8298 24.8545V25.0163C84.715 25.2011 84.5772 25.3744 84.4509 25.5477C84.095 26.056 83.7506 26.5412 83.3832 27.038C83.2339 27.2459 83.0273 27.4192 82.8665 27.6272C82.6627 27.8823 82.4401 28.1218 82.2006 28.3434C82.012 28.5506 81.8087 28.7437 81.5921 28.9211C81.4179 29.065 81.2338 29.1962 81.041 29.3139C80.9262 29.3947 80.7196 29.4294 80.6163 29.5103C80.1685 29.5103 80.1915 28.7131 80.3063 28.355C80.5836 27.3347 80.9685 26.3471 81.4544 25.409C81.7414 24.843 81.994 24.2538 82.3154 23.7108C82.4073 23.5606 82.4532 23.3989 82.5451 23.2602C82.7976 22.8328 83.0158 22.3822 83.2684 21.9663C83.9572 20.8111 84.6461 19.6558 85.3923 18.6392L86.3797 17.2413C86.5634 16.9987 86.793 16.7676 86.9767 16.525C87.1604 16.2824 87.2637 16.1784 87.4015 16.0052L87.6082 15.8088C87.6797 15.7195 87.7605 15.6381 87.8493 15.5661C87.9649 15.4947 88.0881 15.4365 88.2167 15.3929C88.2167 15.3929 88.3085 15.3929 88.343 15.3929C88.4783 15.3783 88.6147 15.4066 88.7333 15.4737C88.9514 15.6355 88.8826 16.3748 88.8022 16.6868C88.7218 16.9987 88.6415 17.6456 88.4922 18.0962C88.343 18.5467 88.0789 19.1937 87.8493 19.7251C87.6479 20.1695 87.4138 20.5982 87.1489 21.0075C86.9767 21.2963 86.8275 21.5851 86.6552 21.8739C86.483 22.1627 85.9549 22.6826 85.6794 23.1216H85.7253ZM108.056 29.2445C108.001 29.5023 107.932 29.7568 107.849 30.007C107.732 30.3499 107.586 30.6823 107.413 31.0006C107.313 31.1994 107.202 31.3923 107.08 31.5782C106.977 31.7515 106.839 31.9132 106.724 32.075C106.503 32.4455 106.191 32.752 105.817 32.9645C105.695 33.0215 105.561 33.0509 105.427 33.0509C105.292 33.0509 105.159 33.0215 105.036 32.9645C104.474 32.6179 104.726 31.2778 104.944 30.7233C105.162 30.1276 105.451 29.5611 105.806 29.0366C105.955 28.8171 106.138 28.6207 106.299 28.4128C106.46 28.2068 106.637 28.0137 106.827 27.8351L107.034 27.6156C107.298 27.4077 107.539 27.1651 107.803 26.9571L108.125 26.7145C108.125 26.7145 108.251 26.6567 108.285 26.599C108.305 27.489 108.212 28.3779 108.01 29.2445H108.056ZM109.101 20.5685C109.101 20.5685 109.101 20.476 109.101 20.4183C109.101 20.3605 108.974 20.0255 108.905 19.8291C108.837 19.6327 108.687 19.0666 108.584 18.6738C108.584 18.5236 108.584 18.385 108.584 18.2233C108.532 17.9251 108.532 17.6203 108.584 17.3222C108.662 17.0466 108.791 16.788 108.963 16.5597C109.19 16.2941 109.489 16.1013 109.824 16.0052C109.944 15.9684 110.067 15.9414 110.191 15.9243H110.249C110.411 15.9076 110.574 15.9496 110.709 16.0427C110.843 16.1358 110.941 16.274 110.983 16.4326C110.994 16.7186 110.939 17.0031 110.823 17.2644C110.519 18.1268 110.134 18.9585 109.675 19.7482C109.56 19.9331 109.456 20.1179 109.342 20.2912C109.276 20.3952 109.194 20.4887 109.101 20.5685Z" fill="#1E1E1E"/>
<path fill-rule="evenodd" clip-rule="evenodd" d="M107.852 11.751C107.642 11.186 107.29 10.7064 106.843 10.3735C106.637 10.1563 106.374 10.0248 106.096 10C106.036 10.0584 105.945 10.0817 105.894 10.1634C105.555 10.8237 105.316 11.5462 105.188 12.2996C105.127 12.5447 105.107 12.8132 105.057 13.0583C105.006 13.3035 105.057 13.2801 105.057 13.3969C104.981 13.7416 104.981 14.1027 105.057 14.4474C105.129 14.5916 105.23 14.7141 105.351 14.8053C105.472 14.8964 105.61 14.9538 105.753 14.9727C105.865 15.0091 105.984 15.0091 106.096 14.9727C106.194 14.9164 106.286 14.8458 106.369 14.7626L106.833 14.3424C107.096 14.116 107.327 13.8444 107.519 13.5369C107.719 13.2942 107.877 13.0088 107.983 12.6965C108.028 12.3732 107.982 12.0418 107.852 11.751Z" fill="#1E1E1E"/>
<path fill-rule="evenodd" clip-rule="evenodd" d="M78.8319 36.2629C78.6897 35.7774 78.4659 35.3191 78.17 34.9072C77.7089 34.317 77.0706 33.8866 76.3468 33.6779C76.1959 33.6204 76.0333 33.6089 75.8707 33.5515C75.6245 33.4858 75.3709 33.4511 75.116 33.4481C75.0231 33.4481 74.8605 33.4481 74.7908 33.4481H74.7211C74.8256 33.2987 75.0579 33.2298 74.9069 33H74.6979C74.6282 33 74.4889 33 74.396 33.0574C74.3031 33.1149 73.978 33.1608 73.8038 33.2298C73.6296 33.2987 73.2812 33.5745 73.0025 33.6893C72.6996 33.785 72.3887 33.8542 72.0736 33.8961C71.911 33.8961 71.7484 33.8961 71.5975 33.8961C71.4465 33.8961 71.1562 33.8961 70.9704 33.8961C70.6928 33.9306 70.4119 33.9306 70.1343 33.8961H69.8672H69.1241C68.8221 33.8272 68.4505 33.8961 68.137 33.8387C68.0519 33.8335 67.9666 33.8335 67.8815 33.8387C67.781 33.8332 67.6802 33.8332 67.5796 33.8387C67.4751 33.8387 67.3358 33.8387 67.2429 33.8387H66.8481C66.7361 33.827 66.6232 33.827 66.5113 33.8387H65.3501H64.3398C64.096 33.8387 63.8057 33.8387 63.5618 33.8387C63.318 33.8387 63.2483 33.8387 63.0973 33.8387C62.7373 33.9191 62.3309 33.9076 61.9361 33.9995H61.6458C61.4019 34.057 61.1465 34.0685 60.891 34.1259C60.3801 34.2638 59.8575 34.3327 59.3814 34.4936C56.8616 35.3208 54.8759 36.4812 53.7263 38.6526C53.4463 39.3368 53.2438 40.0497 53.1224 40.7781L53.0179 41.364C53.0179 41.4329 53.0179 41.4904 53.0179 41.5593C53.0059 41.6777 53.0059 41.797 53.0179 41.9155V42.1338C52.994 42.2668 52.994 42.4029 53.0179 42.5359V42.7427C53.0179 42.8576 53.0179 42.9954 53.0179 43.1218C53.0179 43.2482 53.1224 43.6388 53.2037 43.8916C53.4071 44.6363 53.7693 45.3292 54.2661 45.9237C54.7628 46.5183 55.3825 47.0006 56.0835 47.3383C56.3274 47.4417 56.5945 47.5221 56.8499 47.614C57.0605 47.6672 57.2736 47.7093 57.4886 47.7404C57.6512 47.7404 57.8021 47.7404 57.9647 47.7404C58.1273 47.7404 58.1854 47.7404 58.3015 47.7404C58.4444 47.7522 58.5882 47.7522 58.7311 47.7404C58.9935 47.77 59.2584 47.77 59.5208 47.7404H59.753C60.0665 47.6715 60.3917 47.6715 60.6936 47.591C61.2869 47.4302 61.8688 47.2306 62.4354 46.9936C62.8357 46.804 63.2168 46.5771 63.5734 46.3158C63.736 46.2124 63.8753 46.0975 64.0263 45.9826C64.1773 45.8677 64.1308 45.8677 64.1889 45.8217C64.3079 45.7341 64.4169 45.634 64.514 45.523C64.6301 45.3851 64.7579 45.2588 64.8624 45.1209C65.2636 44.6418 65.5779 44.0976 65.7913 43.5124C65.7913 43.3976 65.7914 43.2597 65.861 43.1448C65.8903 42.9698 65.8903 42.7913 65.861 42.6163C65.861 42.5129 65.861 42.444 65.861 42.3521C65.7918 42.1452 65.6766 41.9562 65.5238 41.7992C65.3711 41.6421 65.1848 41.5209 64.9785 41.4444C64.7931 41.3439 64.586 41.2887 64.3747 41.2836C64.3166 41.2836 64.2005 41.3985 64.2237 41.5248C64.2469 41.6512 64.3514 41.8006 64.3863 41.9155C64.4211 42.0304 64.4559 42.3061 64.5024 42.4899C64.5337 42.929 64.4622 43.3694 64.2934 43.7767C63.8193 44.9823 62.9478 45.9944 61.82 46.6489C61.4493 46.8552 61.0606 47.0282 60.6588 47.1659C60.3776 47.2576 60.0905 47.3305 59.7994 47.3842C59.6717 47.3842 59.5208 47.3842 59.393 47.3842C59.2653 47.3842 59.0098 47.3842 58.824 47.3842C58.6467 47.4071 58.4672 47.4071 58.2899 47.3842C58.1389 47.3842 58.0112 47.3842 57.8718 47.3842C57.6358 47.3381 57.403 47.2767 57.1751 47.2004C56.7386 47.0323 56.3408 46.7787 56.0056 46.455C55.6704 46.1312 55.4047 45.7439 55.2242 45.3162C55.1155 45.0246 55.03 44.7249 54.9688 44.4201C54.9688 44.2477 54.9688 44.0409 54.8759 43.8571C54.783 43.6733 54.8759 43.6733 54.8759 43.5699C54.841 43.3568 54.841 43.1396 54.8759 42.9265V42.7427C54.8759 42.4555 54.9339 42.1797 54.9688 41.904C55.0505 41.4441 55.167 40.9909 55.3171 40.5483C55.4986 40.051 55.7159 39.5672 55.9674 39.1007C55.9674 39.1007 55.9674 39.0088 55.9674 38.9743C56.1648 38.6411 56.3738 38.3079 56.5945 37.9862C56.8151 37.6645 56.8499 37.676 56.9777 37.5152C57.1054 37.3543 57.1751 37.3314 57.2564 37.228C57.4034 37.0307 57.5796 36.8564 57.7789 36.7109C57.8486 36.7109 57.895 36.5731 57.9647 36.5271C58.0344 36.4812 58.3944 36.171 58.6266 36.0101C59.4402 35.4943 60.3238 35.0959 61.251 34.8268C61.611 34.7004 61.9942 34.6429 62.4122 34.5395C62.8302 34.4361 62.8535 34.4706 63.0625 34.4246L64.2237 34.2868C64.3747 34.2868 64.5256 34.2868 64.665 34.2868H64.8508C64.9785 34.2868 65.1527 34.2868 65.2804 34.2868H65.5359C65.7449 34.2868 66.1513 34.2868 66.3487 34.2868H66.7784C67.0876 34.2633 67.3982 34.2633 67.7074 34.2868H67.9164C68.1486 34.3442 68.4505 34.2868 68.6828 34.3442C68.915 34.4017 69.0892 34.3442 69.2634 34.4017H69.3795C69.5305 34.4017 69.7047 34.4017 69.8556 34.4017C70.0066 34.4017 70.0763 34.4017 70.1924 34.4017C70.3661 34.4196 70.5412 34.4196 70.7149 34.4017H71.5162H71.8413C71.9807 34.4017 72.2013 34.4017 72.3058 34.4017C72.2013 34.5855 72.0387 34.7578 71.9226 34.9302C71.6903 35.2978 71.4929 35.6769 71.2723 36.0791C71.0517 36.4812 71.0285 36.5386 70.9123 36.7569C70.8862 36.8279 70.8552 36.897 70.8194 36.9637C70.6064 37.3331 70.4201 37.7171 70.262 38.1126C70.1459 38.3654 69.995 38.6181 69.8788 38.8594C69.6234 39.4224 69.3563 40.0083 69.1124 40.5368C68.6557 41.6028 68.2679 42.6965 67.9512 43.8112C67.9512 43.995 67.9512 44.1788 67.8467 44.3626C67.6466 45.1124 67.6109 45.8959 67.7422 46.6604C67.7881 46.9686 67.9217 47.2576 68.1273 47.4936C68.3329 47.7295 68.6021 47.9028 68.9034 47.9932C68.9503 48.0035 68.999 48.0021 69.0452 47.9892C69.0914 47.9763 69.1337 47.9523 69.1682 47.9193C69.2027 47.8863 69.2284 47.8453 69.243 47.8C69.2576 47.7548 69.2606 47.7067 69.2518 47.66C69.2518 47.5681 69.1589 47.4647 69.1241 47.3727C69.0731 47.1645 69.0344 46.9535 69.0079 46.7409V46.5455C68.973 46.2978 68.973 46.0465 69.0079 45.7988C69.0079 45.6494 69.0079 45.5 69.066 45.3507C69.1821 44.8681 69.2518 44.3971 69.4027 43.949C69.7047 43.0414 69.9834 42.1682 70.3433 41.3295C70.5988 40.7551 70.8775 40.1806 71.133 39.6177C71.2142 39.4338 71.3304 39.25 71.4117 39.0777C71.582 38.6947 71.7678 38.3118 71.969 37.9288C72.1665 37.5611 72.329 37.1705 72.5497 36.7799C72.7703 36.3893 72.7819 36.2973 72.9329 36.0561C73.1999 35.6195 73.4554 35.1714 73.7341 34.7463C73.8386 34.574 73.9547 34.4017 74.0709 34.2293C74.1182 34.1446 74.1726 34.0639 74.2334 33.9881C74.4627 33.9363 74.7009 33.9363 74.9302 33.9881C75.4822 34.1079 75.9891 34.3785 76.3933 34.7693C76.7859 35.1736 77.0729 35.6666 77.2294 36.2054C77.3107 36.4697 77.2991 36.7569 77.3571 37.0441V37.2969C77.3919 37.4907 77.3919 37.689 77.3571 37.8828C77.3571 38.0207 77.3571 38.1586 77.3571 38.2849C77.3627 38.3499 77.3627 38.4153 77.3571 38.4803C77.2991 38.756 77.2874 39.0317 77.2178 39.296C77.02 40.1195 76.7679 40.9293 76.463 41.7202C76.1894 42.3731 75.8632 43.0032 75.4875 43.6044C75.3062 43.88 75.1084 44.1447 74.8953 44.3971C74.5275 44.8866 74.0454 45.2808 73.4902 45.546C72.9617 45.7484 72.3864 45.8002 71.8297 45.6954C71.5357 45.6187 71.2774 45.4442 71.0981 45.2013C70.9735 45.034 70.9008 44.8344 70.8891 44.6269C70.8891 44.6269 70.8891 44.6269 70.8891 44.535C71.0401 43.8226 71.4117 43.5699 72.12 43.3861C72.3687 43.3645 72.619 43.3999 72.8516 43.4895C72.9212 43.4895 73.049 43.5929 73.1419 43.4895C73.2348 43.3861 73.3161 43.1563 73.258 42.9839C73.2072 42.8379 73.1161 42.7089 72.995 42.6114C72.874 42.5139 72.7277 42.452 72.5729 42.4325C72.251 42.3731 71.919 42.3968 71.6091 42.5014C71.2869 42.5897 70.9905 42.7524 70.7442 42.9761C70.4979 43.1998 70.3088 43.4781 70.1924 43.7882C70.0789 44.0895 70.0587 44.4175 70.1343 44.7303C70.2568 45.0302 70.4505 45.2965 70.6992 45.5065C70.9478 45.7165 71.244 45.864 71.5626 45.9366L72.0503 46.0285H72.2361C72.5927 46.0976 72.9595 46.0976 73.3161 46.0285C73.4321 46.0349 73.5484 46.0349 73.6644 46.0285C74.2506 45.902 74.8116 45.6808 75.325 45.3737C75.534 45.2473 75.7082 45.0864 75.894 44.9486C76.0653 44.8212 76.2211 44.6747 76.3585 44.512L76.4862 44.3856C76.5907 44.2477 76.7184 44.1328 76.8113 43.995C77.246 43.4405 77.6161 42.8393 77.9145 42.2027C78.1649 41.6399 78.3858 41.0647 78.5764 40.4793C78.6925 40.1691 78.7506 39.836 78.8435 39.5028C78.85 39.388 78.85 39.2729 78.8435 39.1581C79.056 38.2041 79.0521 37.2152 78.8319 36.2629Z" fill="#1E1E1E"/>
<path fill-rule="evenodd" clip-rule="evenodd" d="M97.9086 35.6462C97.775 35.6462 97.7194 35.7482 97.6304 35.8163L97.2187 36.0884C96.7774 36.3382 96.3062 36.5288 95.8169 36.6554C95.5499 36.7348 95.2384 36.7121 94.9491 36.7801C94.8601 36.7801 94.7043 36.7801 94.6264 36.7801H94.5708C94.6139 36.6518 94.666 36.5267 94.7266 36.4059C94.7933 36.1905 94.8489 35.975 94.9157 35.7709C94.9836 35.4962 94.9678 35.2069 94.8704 34.9415C94.773 34.6761 94.5987 34.4473 94.3705 34.2854C94.2036 34.1607 94.059 33.9793 93.8031 34.0019C93.8031 34.0019 93.6919 34.0586 93.6585 34.1153C93.6251 34.172 93.6585 34.2968 93.6585 34.3875C93.6585 34.4782 93.6585 34.7277 93.5695 34.8978C93.4805 35.0678 93.4026 35.4987 93.3024 35.7822C93.2779 35.882 93.2482 35.9805 93.2134 36.0771C93.1278 36.2766 93.0535 36.4811 92.9909 36.6894C92.0177 36.5159 91.0259 36.4778 90.0426 36.576H89.8312C89.6713 36.608 89.5174 36.6654 89.375 36.7461C89.375 36.7461 89.375 36.7461 89.375 36.8141C89.375 36.8822 89.375 36.9162 89.464 36.9729C89.6037 36.9941 89.7465 36.9745 89.8757 36.9162C90.1122 36.856 90.3551 36.8256 90.5989 36.8255C91.0052 36.7732 91.4164 36.7732 91.8227 36.8255H92.0675L92.8685 36.9729C92.8367 37.0675 92.7957 37.1587 92.7462 37.245C92.6683 37.4151 92.6015 37.5852 92.5236 37.744C92.2677 38.2316 92.0563 38.7305 91.7782 39.1841C91.7782 39.2748 91.7003 39.3769 91.6447 39.4676C91.4667 39.7511 91.3443 40.0799 91.1663 40.3747C90.9883 40.6696 90.7769 41.1231 90.5544 41.5087C90.5182 41.6015 90.4773 41.6923 90.432 41.7808C90.2206 42.121 90.0537 42.4952 89.8534 42.8467C89.6532 43.1983 89.4863 43.4024 89.3083 43.6745C89.0393 44.1533 88.6933 44.5827 88.2847 44.9445C88.1289 45.0579 87.9398 45.3187 87.7395 45.3754C87.6674 45.1663 87.6674 44.9383 87.7395 44.7291C87.7395 44.559 87.8285 44.4002 87.8953 44.2415C87.962 44.0827 88.0733 43.8446 88.1623 43.6518C88.6296 42.5179 89.2081 41.5654 89.6754 40.4428C89.7757 40.1873 89.8611 39.926 89.9313 39.6603C89.9375 39.5584 89.9375 39.4561 89.9313 39.3542C89.9703 39.1596 89.9703 38.9591 89.9313 38.7645C89.9078 38.5533 89.8265 38.353 89.6966 38.1866C89.5668 38.0201 89.3937 37.8943 89.197 37.8233C88.9921 37.748 88.7678 37.748 88.5628 37.8233C88.4544 37.8569 88.3499 37.9026 88.2513 37.9594C87.8274 38.2251 87.4512 38.5626 87.1387 38.9573C87.072 39.048 86.9718 39.116 86.9051 39.2068C86.8383 39.2975 86.6826 39.4789 86.5824 39.615C86.5444 39.6872 86.4997 39.7556 86.4489 39.8191C86.4672 39.2343 86.2775 38.6625 85.9149 38.2089C85.8578 38.1319 85.7945 38.0598 85.7257 37.9934L85.5922 37.9821C85.2584 37.9821 85.3697 38.3223 85.3141 38.5944C85.2584 38.8666 85.2473 39.014 85.2028 39.2294C85.101 39.6168 84.9709 39.9959 84.8134 40.3634C84.5167 41.0258 84.1747 41.6662 83.7898 42.2798C83.6573 42.4969 83.542 42.7244 83.4449 42.9601L83.3559 43.1642C83.0889 43.6065 82.7774 44.0147 82.477 44.4229C82.2577 44.7425 81.9913 45.0256 81.687 45.262C81.5758 45.3414 81.4756 45.4888 81.331 45.5229C81.2797 45.5346 81.2265 45.5346 81.1752 45.5229C80.8748 45.4548 80.7747 45.2847 80.6746 45.0126C80.4866 44.2632 80.5215 43.4738 80.7747 42.7447C80.7747 42.5973 80.8415 42.4499 80.886 42.3024C80.9305 42.155 80.886 42.2004 80.886 42.155C81.0051 42.11 81.128 42.0759 81.2531 42.053C81.5725 41.9728 81.885 41.8666 82.1877 41.7355C82.6328 41.5798 83.0369 41.3219 83.3687 40.9818C83.7005 40.6416 83.9512 40.2283 84.1014 39.7737C84.2905 39.116 84.1014 38.1975 83.6229 37.9934C83.3934 37.9311 83.1499 37.9511 82.9331 38.0501C82.5609 38.2184 82.2098 38.4316 81.8873 38.6851L81.7427 38.8326C81.6092 38.9233 81.509 39.0367 81.3866 39.1274L81.153 39.3655C81.0159 39.4864 80.8893 39.6192 80.7747 39.7624L80.6523 39.8871C80.4854 40.1026 80.2852 40.284 80.1183 40.5108C79.8463 40.8627 79.6114 41.2428 79.4174 41.6448C79.3395 41.8375 79.2838 42.019 79.206 42.2344C78.9711 42.9085 78.9362 43.6381 79.1058 44.3322C79.269 44.9084 79.6228 45.4092 80.1072 45.7496C80.2121 45.798 80.3198 45.8397 80.4298 45.8744C80.6764 45.9909 80.9524 46.0266 81.2197 45.9764C81.7416 45.7719 82.1912 45.4124 82.5104 44.9445C82.6439 44.7631 82.8219 44.6044 82.9443 44.4002C82.9443 44.4683 82.9443 44.5477 82.9443 44.6157C82.9443 45.2961 83.0778 45.5569 83.4672 45.8177C83.5451 45.8177 83.89 46.0558 84.0123 45.9878C84.1347 45.9197 84.0902 45.9878 84.1236 45.9311C84.157 45.8744 84.1236 45.6816 84.1236 45.5455C84.2084 45.102 84.3275 44.6659 84.4796 44.2415C84.602 43.9693 84.7466 43.7085 84.8579 43.4364C84.9823 43.1317 85.1273 42.8362 85.2918 42.5519C85.2918 42.4839 85.2918 42.4045 85.392 42.3365C85.4884 42.1228 85.5961 41.9146 85.7146 41.7128C85.7146 41.6448 85.7146 41.5654 85.8036 41.4973C86.1485 40.9304 86.4823 40.3634 86.8494 39.8191C87.1126 39.3821 87.452 38.9978 87.8508 38.6851C87.9732 38.6058 88.1957 38.4243 88.4182 38.5264C88.6407 38.6284 88.6296 38.8439 88.5739 39.082C88.476 39.4721 88.3419 39.8518 88.1734 40.216C88.0056 40.5658 87.8199 40.9065 87.6171 41.2365C87.3612 41.6561 87.1276 42.087 86.8717 42.5066C86.7257 42.7882 86.5993 43.08 86.4934 43.3797C86.2707 43.896 86.1973 44.4665 86.282 45.0239C86.3155 45.2049 86.3918 45.3749 86.5042 45.5192C86.6167 45.6634 86.7619 45.7775 86.9273 45.8517C87.1137 45.9451 87.3262 45.9692 87.5281 45.9197L87.8508 45.7723C88.2203 45.5537 88.5421 45.2604 88.7965 44.9105L89.019 44.6724C89.1175 44.5083 89.2291 44.3528 89.3528 44.2075C89.3133 44.4477 89.3133 44.693 89.3528 44.9332C89.378 45.0797 89.4152 45.2239 89.464 45.3641C89.5518 45.5951 89.7225 45.7835 89.9415 45.8909C90.1605 45.9983 90.4115 46.0167 90.6434 45.9424C90.7909 45.9046 90.933 45.8474 91.0661 45.7723C91.4183 45.5476 91.7275 45.2594 91.9785 44.9219C91.9785 44.9219 92.0675 44.8425 92.1008 44.7971C92.2677 44.5703 92.4458 44.3549 92.6015 44.1168C92.9242 43.6632 93.1912 43.1756 93.4916 42.688C93.792 42.2004 93.8699 41.9849 94.059 41.6334C94.059 41.5654 94.2259 41.3272 94.1703 41.2592C94.1146 41.1912 94.0813 41.1798 94.0256 41.1458C93.97 41.1118 93.8254 41.3272 93.7586 41.452C93.6918 41.5767 93.436 42.0643 93.2579 42.3591C92.9464 42.8921 92.646 43.4931 92.3011 43.9353L91.7448 44.6837C91.6712 44.7679 91.5892 44.8439 91.5001 44.9105L91.4111 45.0239L91.1552 45.3074C91.051 45.365 90.9507 45.4294 90.8548 45.5002L90.788 45.1713C90.7427 44.9622 90.7427 44.7455 90.788 44.5363C90.8769 44.1386 91.0231 43.7564 91.2219 43.4024C91.322 43.2436 91.3665 43.0735 91.4667 42.9148C91.5668 42.756 91.6892 42.5406 91.8005 42.3591C92.0563 41.9396 92.2789 41.4973 92.5236 41.0664C92.5904 40.9644 92.6238 40.851 92.6905 40.7376C92.992 40.2292 93.2632 39.7029 93.5027 39.1614C93.5553 39.0408 93.6147 38.9234 93.6807 38.8099C93.9032 38.2883 94.148 37.778 94.3705 37.2564C94.8327 37.3077 95.2991 37.3077 95.7613 37.2564H96.095C96.375 37.2138 96.6505 37.1455 96.9184 37.0523C97.1428 36.9568 97.3557 36.835 97.5525 36.6894C97.8307 36.4966 98.1645 36.0544 97.9086 35.6462ZM81.4868 40.5788C81.7093 40.2046 81.9318 39.8531 82.1766 39.5129C82.2947 39.3623 82.425 39.2219 82.566 39.0934L82.7217 38.9233C82.8191 38.8678 82.9058 38.7948 82.9776 38.7078C82.9896 39.0055 82.9596 39.3033 82.8886 39.5923C82.7019 40.2393 82.3108 40.8053 81.776 41.2025L81.3533 41.4633C81.2616 41.4949 81.1752 41.5408 81.0974 41.5994C81.2004 41.2492 81.3306 40.908 81.4868 40.5788Z" fill="#1E1E1E"/>
<path d="M119 16V10H121.421C121.864 10 122.255 10.0752 122.593 10.2255C122.936 10.3705 123.205 10.5852 123.397 10.8698C123.589 11.149 123.685 11.4899 123.685 11.8926C123.685 12.306 123.578 12.6577 123.362 12.9477C123.152 13.2376 122.867 13.4523 122.505 13.5919L124 16H122.654L121.054 13.3664L121.823 13.7852H120.189V16H119ZM120.189 12.8188H121.439C121.654 12.8188 121.841 12.7812 121.998 12.706C122.156 12.6255 122.278 12.5154 122.365 12.3758C122.453 12.2362 122.497 12.0752 122.497 11.8926C122.497 11.7047 122.453 11.5436 122.365 11.4094C122.278 11.2698 122.156 11.1624 121.998 11.0872C121.841 11.0067 121.654 10.9664 121.439 10.9664H120.189V12.8188Z" fill="black"/>
<path fill-rule="evenodd" clip-rule="evenodd" d="M121 17.5C123.485 17.5 125.5 15.4853 125.5 13C125.5 10.5147 123.485 8.5 121 8.5C118.515 8.5 116.5 10.5147 116.5 13C116.5 15.4853 118.515 17.5 121 17.5ZM121 19C124.314 19 127 16.3137 127 13C127 9.68629 124.314 7 121 7C117.686 7 115 9.68629 115 13C115 16.3137 117.686 19 121 19Z" fill="black"/>
<path d="M134.895 62.7702V59.0598H137.235V59.3586H135.218V60.7581H137.136V61.057H135.218V62.4714H137.235V62.7702H134.895Z" fill="black"/>
<path d="M129.207 62.7702V59.0598H131.474V59.3586H129.531V60.7581H131.299V61.057H129.531V62.7702H129.207Z" fill="black"/>
<path d="M125.189 62.7702V59.0598H125.512V62.7702H125.189Z" fill="black"/>
<path d="M119.774 62.7702V59.0598H120.097V62.4714H121.766V62.7702H119.774Z" fill="black"/>
<path d="M109.213 62.7702L108.128 59.0598H108.461L109.438 62.4664L109.328 62.4614L110.334 59.0598H110.668L111.669 62.4614L111.559 62.4664L112.535 59.0598H112.874L111.783 62.7702H111.455L110.444 59.3437H110.558L109.547 62.7702H109.213Z" fill="black"/>
<path d="M102.693 62.7702V59.0598H105.034V59.3586H103.016V60.7581H104.934V61.057H103.016V62.4714H105.034V62.7702H102.693Z" fill="black"/>
<path d="M96.2565 62.7702V59.0598H96.5305L98.7766 62.2821H98.672V59.0598H98.9957V62.7702H98.7218L96.4657 59.528H96.5803V62.7702H96.2565Z" fill="black"/>
<path d="M88.5527 63.3978V63.2285C88.6357 63.2019 88.6972 63.1521 88.737 63.079C88.7802 63.006 88.8018 62.9031 88.8018 62.7703H88.6523V62.2722H88.986V62.6557C88.986 62.8649 88.9478 63.0309 88.8715 63.1537C88.7984 63.2799 88.6922 63.3613 88.5527 63.3978Z" fill="black"/>
<path d="M82.799 62.7702V59.0598H85.1398V59.3586H83.1227V60.7581H85.0402V61.057H83.1227V62.4714H85.1398V62.7702H82.799Z" fill="black"/>
<path d="M77.3842 62.7702V59.0598H77.7079V62.4714H79.3763V62.7702H77.3842Z" fill="black"/>
<path d="M73.3652 62.7702V59.0598H73.689V62.7702H73.3652Z" fill="black"/>
<path d="M66.4816 62.7702V59.0598H66.7555L68.14 61.1217H68.0056L69.3951 59.0598H69.669V62.7702H69.3453V59.533L69.425 59.5778L68.0803 61.5849H68.0653L66.7206 59.5778L66.8053 59.533V62.7702H66.4816Z" fill="black"/>
<path d="M61.7225 62.8299C61.4867 62.8299 61.2742 62.7851 61.085 62.6955C60.899 62.6058 60.743 62.4879 60.6168 62.3418C60.494 62.1958 60.406 62.038 60.3528 61.8687L60.6417 61.7641C60.7347 62.0165 60.8725 62.209 61.0551 62.3418C61.241 62.4747 61.4618 62.5411 61.7175 62.5411C61.8868 62.5411 62.0346 62.5128 62.1607 62.4564C62.2902 62.3999 62.3915 62.3203 62.4645 62.2173C62.5376 62.1144 62.5741 61.9932 62.5741 61.8538C62.5741 61.6612 62.5193 61.5118 62.4097 61.4055C62.3035 61.2993 62.164 61.2229 61.9914 61.1764L61.3141 60.9772C61.0385 60.8975 60.8343 60.7697 60.7015 60.5937C60.572 60.4144 60.5072 60.2119 60.5072 59.9861C60.5072 59.7902 60.5537 59.6192 60.6467 59.4731C60.743 59.3237 60.8725 59.2075 61.0352 59.1245C61.1978 59.0415 61.3821 59 61.588 59C61.8038 59 61.9964 59.0415 62.1657 59.1245C62.3384 59.2042 62.4828 59.3104 62.599 59.4433C62.7185 59.5727 62.8032 59.7172 62.853 59.8765L62.5691 59.9811C62.4861 59.752 62.3583 59.5794 62.1856 59.4632C62.013 59.3436 61.8154 59.2839 61.593 59.2839C61.4469 59.2839 61.3157 59.3121 61.1995 59.3685C61.0833 59.425 60.992 59.5047 60.9256 59.6076C60.8592 59.7105 60.826 59.8317 60.826 59.9712C60.826 60.1405 60.8741 60.2849 60.9704 60.4045C61.0667 60.524 61.2277 60.6186 61.4535 60.6884L62.0611 60.8676C62.3267 60.9473 62.5309 61.0702 62.6737 61.2362C62.8198 61.3989 62.8928 61.5998 62.8928 61.8388C62.8928 62.0347 62.843 62.2074 62.7434 62.3568C62.6438 62.5029 62.5044 62.6191 62.3251 62.7054C62.1491 62.7884 61.9482 62.8299 61.7225 62.8299Z" fill="black"/>
<path d="M49.9569 62.7702L48.8712 59.0598H49.2049L50.1811 62.4664L50.0715 62.4614L51.0775 59.0598H51.4112L52.4123 62.4614L52.3027 62.4664L53.2789 59.0598H53.6175L52.5268 62.7702H52.1981L51.1871 59.3437H51.3016L50.2906 62.7702H49.9569Z" fill="black"/>
<path d="M43.4362 62.7702V59.0598H45.7769V59.3586H43.7599V60.7581H45.6773V61.057H43.7599V62.4714H45.7769V62.7702H43.4362Z" fill="black"/>
<path d="M37 62.7702V59.0598H37.2739L39.5201 62.2821H39.4155V59.0598H39.7392V62.7702H39.4653L37.2092 59.528H37.3237V62.7702H37Z" fill="black"/>
</svg>
