<svg id="Capa_1" enable-background="new 0 0 511.893 511.893" height="512" viewBox="0 0 511.893 511.893" fill="#fff" width="512" xmlns="http://www.w3.org/2000/svg"><g><path d="m180.95 160.94c33.262 0 55-34.754 55-70 0-35.321-21.8-70-55-70-33.262 0-55 34.754-55 70 0 35.321 21.801 70 55 70zm0-120c18.972 0 35 22.897 35 50s-16.028 50-35 50-35-22.897-35-50 16.029-50 35-50z"/><path d="m330.951 160.94c33.262 0 55-34.754 55-70 0-35.321-21.8-70-55-70-33.262 0-55 34.754-55 70 0 35.321 21.8 70 55 70zm0-120c18.972 0 35 22.897 35 50s-16.028 50-35 50-35-22.897-35-50 16.028-50 35-50z"/><path d="m94.127 271.563c28.858-16.647 30.226-57.648 12.635-88.12-17.651-30.591-53.866-49.731-82.631-33.123-28.785 16.613-30.271 57.568-12.631 88.12 17.637 30.548 53.991 49.663 82.627 33.123zm-59.997-103.922c19.179-11.073 44.026 6.242 55.31 25.798 0 0 0 .001.001.002 11.255 19.497 13.905 49.715-5.313 60.801-19.183 11.081-44.032-6.272-55.308-25.801-11.263-19.511-13.887-49.72 5.31-60.8z"/><path d="m417.769 271.56c28.801 16.637 65.006-2.59 82.632-33.119 17.749-30.74 15.98-71.608-12.63-88.12-28.895-16.681-65.079 2.701-82.631 33.12-17.694 30.648-16.094 71.55 12.629 88.119zm4.692-78.122c11.219-19.444 36.068-36.909 55.311-25.797 19.184 11.072 16.585 41.267 5.309 60.799-11.255 19.493-36.104 36.895-55.313 25.798-19.154-11.049-16.619-41.204-5.307-60.8z"/><circle cx="422.951" cy="437.94" r="10"/><path d="m67.172 405.356c5.734 42.012 35.348 76.033 80.741 84.003 28.854 5.06 56.475-2.154 78.197-18.535 17.569-13.246 42.11-13.247 59.68 0 22.373 16.872 50.145 23.452 78.198 18.535 11.479-2.015 22.183-5.719 31.813-11.01 4.841-2.659 6.609-8.739 3.95-13.579-2.659-4.841-8.738-6.609-13.579-3.95-7.703 4.231-16.33 7.206-25.641 8.84-22.533 3.95-44.802-1.306-62.701-14.805-24.657-18.591-59.103-18.591-83.762 0-17.9 13.499-40.167 18.754-62.699 14.805-41.725-7.326-60.615-39.419-64.383-67.01-4.901-35.904 11.957-68.659 42.956-83.449 14.317-6.845 25.761-17.979 32.221-31.352 20.24-41.897 55.301-66.91 93.786-66.91s73.546 25.013 93.786 66.91c6.46 13.373 17.903 24.507 32.228 31.355 28.243 13.478 44.979 42.276 43.677 75.158-.219 5.519 4.078 10.169 9.597 10.388 5.503.217 10.17-4.078 10.388-9.596 1.624-41.003-19.469-77.022-55.041-93.997-10.236-4.894-18.348-12.709-22.84-22.008-21.83-45.19-62.673-78.21-111.794-78.21-49.151 0-89.981 33.055-111.794 78.21-4.492 9.298-12.604 17.114-22.833 22.004-40.596 19.372-59.88 62.242-54.151 104.203z"/></g></svg>